<svg width="132" height="28" viewBox="0 0 132 28" fill="none" xmlns="http://www.w3.org/2000/svg">
<path d="M0.880005 27.0001V26.6001L1.68 26.2801C2.2133 26.0934 2.56001 25.8401 2.72001 25.5201C2.90671 25.2001 3 24.7734 3 24.2401V3.3601C3 2.8268 2.92 2.4001 2.76 2.0801C2.6 1.7601 2.24 1.5068 1.68 1.3201L0.880005 1.0001V0.600098H11.16V1.0001L10.36 1.3201C9.8267 1.5068 9.4667 1.7601 9.28 2.0801C9.12 2.4001 9.04 2.8268 9.04 3.3601V24.2401C9.04 24.7734 9.12 25.2001 9.28 25.5201C9.4667 25.8134 9.8267 26.0668 10.36 26.2801L11.16 26.6001V27.0001H0.880005ZM12.8313 27.0001V26.6001L13.3913 26.4401C14.3246 26.1734 14.7913 25.5201 14.7913 24.4801V11.9601C14.7913 11.3734 14.6979 10.9468 14.5113 10.6801C14.3246 10.3868 13.9646 10.1868 13.4313 10.0801L12.8313 9.9201V9.5201L19.6713 7.2001L20.0713 7.6001L20.3913 10.0001C21.3246 9.1734 22.3779 8.4934 23.5513 7.9601C24.7246 7.4268 25.8846 7.1601 27.0313 7.1601C28.7913 7.1601 30.1379 7.6401 31.0713 8.6001C32.0313 9.5601 32.5113 11.0268 32.5113 13.0001V24.5201C32.5113 25.5601 33.0179 26.2134 34.0313 26.4801L34.3913 26.6001V27.0001H24.9513V26.6001L25.4713 26.4401C26.4046 26.1468 26.8713 25.4934 26.8713 24.4801V11.7201C26.8713 10.0134 26.0179 9.1601 24.3113 9.1601C23.1379 9.1601 21.8579 9.7468 20.4713 10.9201V24.5201C20.4713 25.5601 20.9379 26.2134 21.8713 26.4801L22.2313 26.6001V27.0001H12.8313ZM43.3609 27.6001C41.6543 27.6001 40.3209 27.1734 39.3609 26.3201C38.4276 25.4668 37.9609 24.1068 37.9609 22.2401V8.5601H35.2009V8.1601L36.1609 8.0001C36.9876 7.8134 37.6943 7.5468 38.2809 7.2001C38.8943 6.8534 39.4943 6.3868 40.0809 5.8001L43.3609 2.1601H43.7609L43.6409 7.7601H48.1209V8.5601H43.6009V22.9601C43.6009 23.8934 43.8009 24.6001 44.2009 25.0801C44.6276 25.5601 45.1609 25.8001 45.8009 25.8001C46.3609 25.8001 46.8543 25.6668 47.2809 25.4001C47.7076 25.1068 48.1343 24.7201 48.5609 24.2401L48.9609 24.6401C48.4276 25.5468 47.6943 26.2668 46.7609 26.8001C45.8276 27.3334 44.6943 27.6001 43.3609 27.6001ZM60.137 7.1601C61.87 7.1601 63.35 7.5201 64.577 8.2401C65.804 8.9334 66.737 9.8934 67.377 11.1201C68.044 12.3201 68.377 13.6934 68.377 15.2401C68.377 15.5334 68.364 15.8401 68.337 16.1601C68.31 16.4534 68.257 16.7201 68.177 16.9601H56.257C56.284 19.8401 56.79 21.9201 57.777 23.2001C58.79 24.4534 60.284 25.0801 62.257 25.0801C63.59 25.0801 64.67 24.8668 65.497 24.4401C66.324 24.0134 67.097 23.3868 67.817 22.5601L68.217 22.9201C67.39 24.3868 66.284 25.5334 64.897 26.3601C63.537 27.1868 61.897 27.6001 59.977 27.6001C58.084 27.6001 56.404 27.2001 54.9369 26.4001C53.4702 25.5734 52.3235 24.4001 51.4969 22.8801C50.6702 21.3601 50.2569 19.5468 50.2569 17.4401C50.2569 15.2534 50.7369 13.4001 51.6969 11.8801C52.6569 10.3334 53.8835 9.1601 55.3769 8.3601C56.897 7.5601 58.484 7.1601 60.137 7.1601ZM60.017 7.9601C59.244 7.9601 58.577 8.2001 58.017 8.6801C57.484 9.1334 57.057 9.9601 56.737 11.1601C56.444 12.3334 56.284 14.0001 56.257 16.1601H63.097C63.364 13.2534 63.257 11.1601 62.777 9.8801C62.297 8.6001 61.377 7.9601 60.017 7.9601ZM70.37 27.0001V26.6001L70.97 26.4401C71.504 26.2801 71.864 26.0401 72.05 25.7201C72.264 25.4001 72.37 24.9868 72.37 24.4801V11.9601C72.37 11.3734 72.264 10.9468 72.05 10.6801C71.864 10.3868 71.504 10.1868 70.97 10.0801L70.37 9.9201V9.5201L77.25 7.2001L77.65 7.6001L78.01 11.0401V11.3601C78.384 10.6134 78.864 9.9334 79.45 9.3201C80.064 8.6801 80.73 8.1601 81.45 7.7601C82.197 7.3601 82.93 7.1601 83.65 7.1601C84.664 7.1601 85.437 7.4401 85.97 8.0001C86.504 8.5601 86.77 9.2668 86.77 10.1201C86.77 11.0268 86.504 11.7334 85.97 12.2401C85.464 12.7201 84.85 12.9601 84.13 12.9601C83.01 12.9601 82.024 12.4001 81.17 11.2801L81.09 11.2001C80.824 10.8268 80.517 10.6268 80.17 10.6001C79.824 10.5468 79.504 10.7068 79.21 11.0801C78.944 11.3201 78.717 11.6134 78.53 11.9601C78.37 12.2801 78.21 12.6534 78.05 13.0801V24.2401C78.05 25.3068 78.517 25.9734 79.45 26.2401L80.73 26.6001V27.0001H70.37ZM88.027 27.0001V26.6001L88.587 26.4401C89.52 26.1734 89.987 25.5201 89.987 24.4801V11.9601C89.987 11.3734 89.893 10.9468 89.707 10.6801C89.52 10.3868 89.16 10.1868 88.627 10.0801L88.027 9.9201V9.5201L94.867 7.2001L95.267 7.6001L95.587 10.0001C96.52 9.1734 97.573 8.4934 98.747 7.9601C99.92 7.4268 101.08 7.1601 102.227 7.1601C103.987 7.1601 105.333 7.6401 106.267 8.6001C107.227 9.5601 107.707 11.0268 107.707 13.0001V24.5201C107.707 25.5601 108.213 26.2134 109.227 26.4801L109.587 26.6001V27.0001H100.147V26.6001L100.667 26.4401C101.6 26.1468 102.067 25.4934 102.067 24.4801V11.7201C102.067 10.0134 101.213 9.1601 99.507 9.1601C98.333 9.1601 97.053 9.7468 95.667 10.9201V24.5201C95.667 25.5601 96.133 26.2134 97.067 26.4801L97.427 26.6001V27.0001H88.027ZM121.272 27.6001C119.245 27.6001 117.485 27.1868 115.992 26.3601C114.498 25.5068 113.338 24.3068 112.512 22.7601C111.712 21.2134 111.312 19.4001 111.312 17.3201C111.312 15.2401 111.738 13.4401 112.592 11.9201C113.472 10.4001 114.658 9.2268 116.152 8.4001C117.672 7.5734 119.378 7.1601 121.272 7.1601C123.165 7.1601 124.858 7.5734 126.352 8.4001C127.845 9.2001 129.018 10.3601 129.872 11.8801C130.752 13.4001 131.192 15.2134 131.192 17.3201C131.192 19.4268 130.778 21.2534 129.952 22.8001C129.152 24.3201 128.005 25.5068 126.512 26.3601C125.045 27.1868 123.298 27.6001 121.272 27.6001ZM121.272 26.8001C122.205 26.8001 122.952 26.5334 123.512 26.0001C124.072 25.4668 124.472 24.5201 124.712 23.1601C124.978 21.8001 125.112 19.8801 125.112 17.4001C125.112 14.8934 124.978 12.9601 124.712 11.6001C124.472 10.2401 124.072 9.2934 123.512 8.7601C122.952 8.2268 122.205 7.9601 121.272 7.9601C120.338 7.9601 119.578 8.2268 118.992 8.7601C118.432 9.2934 118.018 10.2401 117.752 11.6001C117.512 12.9601 117.392 14.8934 117.392 17.4001C117.392 19.8801 117.512 21.8001 117.752 23.1601C118.018 24.5201 118.432 25.4668 118.992 26.0001C119.578 26.5334 120.338 26.8001 121.272 26.8001Z" fill="#292F36"/>
</svg>
